<svg width="250" height="250" viewBox="0 0 100 100" xmlns="http://www.w3.org/2000/svg">
  <!-- Define a gradient for a bit more pop on the head -->
  <defs>
    <radialGradient id="headGradient" cx="50%" cy="40%" r="60%" fx="50%" fy="40%">
      <stop offset="0%" style="stop-color:#FFB347; stop-opacity:1" /> <!-- Lighter Orange -->
      <stop offset="100%" style="stop-color:#FF8C00; stop-opacity:1" /> <!-- Darker Orange -->
    </radialGradient>
  </defs>

  <!-- Tentacles - Drawn first to be behind the head -->
  <g fill="#FF8C00" stroke="#D2691E" stroke-width="0.5">
    <!-- Tentacle 1 (Far Left) -->
    <path d="M 30 50
             C 15 55, 10 70, 15 85
             S 25 95, 30 90
             C 30 80, 25 65, 35 55 Z" />
    <!-- Suckers for Tentacle 1 -->
    <g fill="#FFFDD0">
      <circle cx="26" cy="65" r="2"/> <circle cx="22" cy="75" r="1.8"/> <circle cx="25" cy="85" r="1.5"/>
    </g>

    <!-- Tentacle 2 (Mid Left) -->
    <path d="M 40 58
             C 30 70, 25 85, 35 95
             S 45 98, 48 90
             C 45 80, 45 70, 45 60 Z" />
    <!-- Suckers for Tentacle 2 -->
    <g fill="#FFFDD0">
      <circle cx="38" cy="72" r="2"/> <circle cx="36" cy="85" r="1.8"/> <circle cx="42" cy="92" r="1.5"/>
    </g>

    <!-- Tentacle 3 (Front Left-ish, Waving) -->
    <path d="M 50 60
             C 45 75, 35 75, 30 70
             S 30 60, 40 62
             C 45 63, 48 62, 50 60 Z" />
    <!-- Suckers for Tentacle 3 -->
    <g fill="#FFFDD0">
      <circle cx="46" cy="69" r="1.8"/> <circle cx="38" cy="71" r="1.6"/> <circle cx="35" cy="66" r="1.5"/>
    </g>

    <!-- Tentacle 4 (Front Right-ish, Waving) -->
    <path d="M 50 60
             C 55 75, 65 75, 70 70
             S 70 60, 60 62
             C 55 63, 52 62, 50 60 Z" />
    <!-- Suckers for Tentacle 4 -->
    <g fill="#FFFDD0">
      <circle cx="54" cy="69" r="1.8"/> <circle cx="62" cy="71" r="1.6"/> <circle cx="65" cy="66" r="1.5"/>
    </g>

    <!-- Tentacle 5 (Mid Right) -->
    <path d="M 60 58
             C 70 70, 75 85, 65 95
             S 55 98, 52 90
             C 55 80, 55 70, 55 60 Z" />
    <!-- Suckers for Tentacle 5 -->
    <g fill="#FFFDD0">
      <circle cx="62" cy="72" r="2"/> <circle cx="64" cy="85" r="1.8"/> <circle cx="58" cy="92" r="1.5"/>
    </g>

    <!-- Tentacle 6 (Far Right) -->
    <path d="M 70 50
             C 85 55, 90 70, 85 85
             S 75 95, 70 90
             C 70 80, 75 65, 65 55 Z" />
    <!-- Suckers for Tentacle 6 -->
    <g fill="#FFFDD0">
      <circle cx="74" cy="65" r="2"/> <circle cx="78" cy="75" r="1.8"/> <circle cx="75" cy="85" r="1.5"/>
    </g>
  </g>

  <!-- Octopus Body/Head -->
  <ellipse cx="50" cy="35" rx="30" ry="25" fill="url(#headGradient)" stroke="#D2691E" stroke-width="1.5"/>

  <!-- Eyes -->
  <!-- Left Eye -->
  <circle cx="38" cy="32" r="9" fill="white" stroke="#333" stroke-width="0.5"/>
  <circle cx="36" cy="33" r="5" fill="#2ECC71"/> <!-- Cheerful Green Pupil -->
  <circle cx="37.5" cy="31" r="1.5" fill="white"/> <!-- Highlight -->

  <!-- Right Eye -->
  <circle cx="62" cy="32" r="9" fill="white" stroke="#333" stroke-width="0.5"/>
  <circle cx="64" cy="33" r="5" fill="#2ECC71"/> <!-- Cheerful Green Pupil -->
  <circle cx="62.5" cy="31" r="1.5" fill="white"/> <!-- Highlight -->

  <!-- Smile -->
  <path d="M 40 45 Q 50 55 60 45" stroke="#C0392B" stroke-width="2" fill="none" stroke-linecap="round"/>

  <!-- Optional: Tiny blush spots for extra cuteness -->
  <ellipse cx="33" cy="42" rx="4" ry="2.5" fill="#FFB6C1" opacity="0.6"/>
  <ellipse cx="67" cy="42" rx="4" ry="2.5" fill="#FFB6C1" opacity="0.6"/>

</svg>