<svg width="250" height="250" viewBox="0 0 100 100" xmlns="http://www.w3.org/2000/svg">
  <!-- Define gradients for a modern, metallic look -->
  <defs>
    <linearGradient id="bodyGradient" x1="0%" y1="0%" x2="100%" y2="100%">
      <stop offset="0%" style="stop-color:#4A90E2; stop-opacity:1" /> <!-- Bright Blue -->
      <stop offset="100%" style="stop-color:#357ABD; stop-opacity:1" /> <!-- Darker Blue -->
    </linearGradient>
    <linearGradient id="screenGradient" x1="0%" y1="0%" x2="100%" y2="100%">
      <stop offset="0%" style="stop-color:#50E3C2; stop-opacity:1" /> <!-- Turquoise -->
      <stop offset="100%" style="stop-color:#2ECC71; stop-opacity:1" /> <!-- Green -->
    </linearGradient>
    <linearGradient id="antennaGradient" x1="0%" y1="0%" x2="100%" y2="100%">
      <stop offset="0%" style="stop-color:#F1C40F; stop-opacity:1" /> <!-- Yellow -->
      <stop offset="100%" style="stop-color:#F39C12; stop-opacity:1" /> <!-- Orange -->
    </linearGradient>
  </defs>

  <!-- Robot's Body -->
  <rect x="30" y="40" width="40" height="45" rx="5" ry="5" 
        fill="url(#bodyGradient)" stroke="#2C3E50" stroke-width="1.5"/>

  <!-- Robot's Head -->
  <rect x="35" y="20" width="30" height="25" rx="3" ry="3" 
        fill="url(#bodyGradient)" stroke="#2C3E50" stroke-width="1.5"/>

  <!-- Antenna -->
  <g stroke="#2C3E50" stroke-width="1">
    <line x1="50" y1="20" x2="50" y2="10"/>
    <circle cx="50" cy="10" r="2" fill="url(#antennaGradient)"/>
  </g>

  <!-- Eyes -->
  <!-- Left Eye -->
  <rect x="40" y="28" width="8" height="8" rx="2" ry="2" 
        fill="url(#screenGradient)" stroke="#2C3E50" stroke-width="0.5"/>
  <circle cx="44" cy="32" r="2" fill="#2C3E50"/> <!-- Pupil -->

  <!-- Right Eye -->
  <rect x="52" y="28" width="8" height="8" rx="2" ry="2" 
        fill="url(#screenGradient)" stroke="#2C3E50" stroke-width="0.5"/>
  <circle cx="56" cy="32" r="2" fill="#2C3E50"/> <!-- Pupil -->

  <!-- Mouth -->
  <rect x="42" y="45" width="16" height="3" rx="1" ry="1" 
        fill="url(#screenGradient)" stroke="#2C3E50" stroke-width="0.5"/>

  <!-- Buttons -->
  <g fill="url(#screenGradient)" stroke="#2C3E50" stroke-width="0.5">
    <circle cx="40" cy="60" r="2"/>
    <circle cx="40" cy="65" r="2"/>
    <circle cx="40" cy="70" r="2"/>
  </g>

  <!-- Arms -->
  <g stroke="#2C3E50" stroke-width="1.5">
    <!-- Left Arm -->
    <line x1="30" y1="50" x2="20" y2="60"/>
    <circle cx="20" cy="60" r="3" fill="url(#bodyGradient)"/>
    
    <!-- Right Arm -->
    <line x1="70" y1="50" x2="80" y2="60"/>
    <circle cx="80" cy="60" r="3" fill="url(#bodyGradient)"/>
  </g>

  <!-- Legs -->
  <g stroke="#2C3E50" stroke-width="1.5">
    <!-- Left Leg -->
    <line x1="40" y1="85" x2="40" y2="95"/>
    <rect x="35" y="95" width="10" height="3" rx="1" ry="1" fill="url(#bodyGradient)"/>
    
    <!-- Right Leg -->
    <line x1="60" y1="85" x2="60" y2="95"/>
    <rect x="55" y="95" width="10" height="3" rx="1" ry="1" fill="url(#bodyGradient)"/>
  </g>

  <!-- Decorative Elements -->
  <g fill="url(#screenGradient)" opacity="0.6">
    <!-- Left Side Decoration -->
    <rect x="30" y="45" width="2" height="35" rx="1" ry="1"/>
    <!-- Right Side Decoration -->
    <rect x="68" y="45" width="2" height="35" rx="1" ry="1"/>
  </g>

</svg>