<?xml version="1.0" encoding="UTF-8"?>
<svg width="250" height="250" viewBox="0 0 100 100" xmlns="http://www.w3.org/2000/svg">
  <!-- Define gradients for a soft, marine look -->
  <defs>
    <radialGradient id="bodyGradient" cx="50%" cy="40%" r="60%" fx="50%" fy="40%">
      <stop offset="0%" style="stop-color:#4A90E2; stop-opacity:1" /> <!-- Light Navy -->
      <stop offset="100%" style="stop-color:#1B4F72; stop-opacity:1" /> <!-- Dark Navy -->
    </radialGradient>
    <radialGradient id="noseGradient" cx="50%" cy="40%" r="60%" fx="50%" fy="40%">
      <stop offset="0%" style="stop-color:#000000; stop-opacity:1" /> <!-- Black -->
      <stop offset="100%" style="stop-color:#2C3E50; stop-opacity:1" /> <!-- Dark Blue-Gray -->
    </radialGradient>
  </defs>

  <!-- Sea Lion's Body -->
  <ellipse cx="50" cy="60" rx="30" ry="25" fill="url(#bodyGradient)" stroke="#1B4F72" stroke-width="1.5"/>

  <!-- Sea Lion's Head -->
  <circle cx="50" cy="35" r="20" fill="url(#bodyGradient)" stroke="#1B4F72" stroke-width="1.5"/>

  <!-- Sea Lion's Flippers -->
  <g fill="url(#bodyGradient)" stroke="#1B4F72" stroke-width="1">
    <!-- Left Flipper -->
    <path d="M 25 55
             C 15 60, 10 65, 15 75
             S 25 80, 30 75
             C 30 70, 28 65, 25 55 Z" />
    <!-- Right Flipper -->
    <path d="M 75 55
             C 85 60, 90 65, 85 75
             S 75 80, 70 75
             C 70 70, 72 65, 75 55 Z" />
  </g>

  <!-- Sea Lion's Tail -->
  <path d="M 45 80
           C 50 90, 50 95, 55 80
           S 52 75, 45 80 Z"
        fill="url(#bodyGradient)" stroke="#1B4F72" stroke-width="1"/>

  <!-- Eyes -->
  <!-- Left Eye -->
  <circle cx="42" cy="32" r="6" fill="white" stroke="#333" stroke-width="0.5"/>
  <circle cx="42" cy="32" r="3" fill="#4B0082"/> <!-- Deep Purple Pupil -->
  <circle cx="41" cy="31" r="1" fill="white"/> <!-- Highlight -->

  <!-- Right Eye -->
  <circle cx="58" cy="32" r="6" fill="white" stroke="#333" stroke-width="0.5"/>
  <circle cx="58" cy="32" r="3" fill="#4B0082"/> <!-- Deep Purple Pupil -->
  <circle cx="57" cy="31" r="1" fill="white"/> <!-- Highlight -->

  <!-- Nose -->
  <ellipse cx="50" cy="38" rx="4" ry="3" fill="url(#noseGradient)"/>

  <!-- Whiskers -->
  <g stroke="#1B4F72" stroke-width="0.5">
    <!-- Left Whiskers -->
    <line x1="46" y1="38" x2="30" y2="35"/>
    <line x1="46" y1="39" x2="30" y2="39"/>
    <line x1="46" y1="40" x2="30" y2="43"/>
    <!-- Right Whiskers -->
    <line x1="54" y1="38" x2="70" y2="35"/>
    <line x1="54" y1="39" x2="70" y2="39"/>
    <line x1="54" y1="40" x2="70" y2="43"/>
  </g>

  <!-- Mouth -->
  <path d="M 45 42 Q 50 46 55 42" 
        stroke="#1B4F72" stroke-width="1.5" 
        fill="none" stroke-linecap="round"/>

  <!-- Cheeks -->
  <ellipse cx="35" cy="42" rx="4" ry="2.5" fill="#4A90E2" opacity="0.6"/>
  <ellipse cx="65" cy="42" rx="4" ry="2.5" fill="#4A90E2" opacity="0.6"/>

  <!-- Small Ears -->
  <g fill="url(#bodyGradient)" stroke="#1B4F72" stroke-width="1">
    <ellipse cx="35" cy="25" rx="3" ry="4"/>
    <ellipse cx="65" cy="25" rx="3" ry="4"/>
  </g>
</svg> 